<svg width="33" height="34" viewBox="0 0 33 34" fill="none" xmlns="http://www.w3.org/2000/svg">
<path fill-rule="evenodd" clip-rule="evenodd" d="M9.6975 0.599C11.457 0.518 12.018 0.5 16.5 0.5C20.982 0.5 21.543 0.5195 23.301 0.599C25.059 0.6785 26.259 0.959 27.309 1.3655C28.4085 1.781 29.406 2.4305 30.231 3.2705C31.071 4.094 31.719 5.09 32.133 6.191C32.541 7.241 32.82 8.441 32.901 10.196C32.982 11.9585 33 12.5195 33 17C33 21.482 32.9805 22.043 32.901 23.8025C32.8215 25.5575 32.541 26.7575 32.133 27.8075C31.719 28.9086 31.0699 29.9063 30.231 30.731C29.406 31.571 28.4085 32.219 27.309 32.633C26.259 33.041 25.059 33.32 23.304 33.401C21.543 33.482 20.982 33.5 16.5 33.5C12.018 33.5 11.457 33.4805 9.6975 33.401C7.9425 33.3215 6.7425 33.041 5.6925 32.633C4.59138 32.2189 3.59373 31.5699 2.769 30.731C1.92957 29.907 1.27997 28.9098 0.8655 27.809C0.459 26.759 0.18 25.559 0.099 23.804C0.018 22.0415 0 21.4805 0 17C0 12.518 0.0195 11.957 0.099 10.199C0.1785 8.441 0.459 7.241 0.8655 6.191C1.28058 5.09012 1.93068 4.09297 2.7705 3.269C3.59406 2.42975 4.59071 1.78017 5.691 1.3655C6.741 0.959 7.941 0.68 9.696 0.599H9.6975ZM23.1675 3.569C21.4275 3.4895 20.9055 3.473 16.5 3.473C12.0945 3.473 11.5725 3.4895 9.8325 3.569C8.223 3.6425 7.35 3.911 6.768 4.1375C5.9985 4.4375 5.448 4.793 4.8705 5.3705C4.32307 5.90308 3.90177 6.55142 3.6375 7.268C3.411 7.85 3.1425 8.723 3.069 10.3325C2.9895 12.0725 2.973 12.5945 2.973 17C2.973 21.4055 2.9895 21.9275 3.069 23.6675C3.1425 25.277 3.411 26.15 3.6375 26.732C3.9015 27.4475 4.323 28.097 4.8705 28.6295C5.403 29.177 6.0525 29.5985 6.768 29.8625C7.35 30.089 8.223 30.3575 9.8325 30.431C11.5725 30.5105 12.093 30.527 16.5 30.527C20.907 30.527 21.4275 30.5105 23.1675 30.431C24.777 30.3575 25.65 30.089 26.232 29.8625C27.0015 29.5625 27.552 29.207 28.1295 28.6295C28.677 28.097 29.0985 27.4475 29.3625 26.732C29.589 26.15 29.8575 25.277 29.931 23.6675C30.0105 21.9275 30.027 21.4055 30.027 17C30.027 12.5945 30.0105 12.0725 29.931 10.3325C29.8575 8.723 29.589 7.85 29.3625 7.268C29.0625 6.4985 28.707 5.948 28.1295 5.3705C27.5969 4.82311 26.9486 4.40182 26.232 4.1375C25.65 3.911 24.777 3.6425 23.1675 3.569ZM14.3925 22.0865C15.5695 22.5764 16.8801 22.6426 18.1004 22.2736C19.3207 21.9046 20.3751 21.1234 21.0834 20.0634C21.7917 19.0034 22.1101 17.7303 21.9841 16.4617C21.8581 15.193 21.2955 14.0075 20.3925 13.1075C19.8169 12.5322 19.1208 12.0917 18.3545 11.8177C17.5882 11.5437 16.7706 11.443 15.9607 11.5229C15.1508 11.6028 14.3687 11.8613 13.6707 12.2797C12.9727 12.6981 12.3761 13.2661 11.924 13.9428C11.4718 14.6194 11.1753 15.3879 11.0558 16.1929C10.9363 16.9979 10.9967 17.8194 11.2328 18.5983C11.4689 19.3771 11.8747 20.0939 12.4211 20.6971C12.9674 21.3003 13.6407 21.7748 14.3925 22.0865ZM10.503 11.003C11.2905 10.2155 12.2255 9.59075 13.2544 9.16454C14.2834 8.73833 15.3863 8.51896 16.5 8.51896C17.6137 8.51896 18.7166 8.73833 19.7456 9.16454C20.7745 9.59075 21.7095 10.2155 22.497 11.003C23.2845 11.7905 23.9092 12.7255 24.3355 13.7544C24.7617 14.7834 24.981 15.8863 24.981 17C24.981 18.1137 24.7617 19.2166 24.3355 20.2456C23.9092 21.2745 23.2845 22.2095 22.497 22.997C20.9065 24.5875 18.7493 25.481 16.5 25.481C14.2507 25.481 12.0935 24.5875 10.503 22.997C8.9125 21.4065 8.01896 19.2493 8.01896 17C8.01896 14.7507 8.9125 12.5935 10.503 11.003ZM26.862 9.782C27.0572 9.5979 27.2134 9.37652 27.3215 9.13096C27.4295 8.8854 27.4872 8.62065 27.4911 8.3524C27.495 8.08414 27.4451 7.81782 27.3442 7.56921C27.2434 7.32061 27.0936 7.09477 26.9039 6.90506C26.7142 6.71535 26.4884 6.56564 26.2398 6.46478C25.9912 6.36392 25.7249 6.31396 25.4566 6.31787C25.1883 6.32178 24.9236 6.37948 24.678 6.48754C24.4325 6.59561 24.2111 6.75184 24.027 6.947C23.669 7.32654 23.4729 7.83068 23.4806 8.3524C23.4882 8.87411 23.6988 9.37232 24.0677 9.74126C24.4367 10.1102 24.9349 10.3208 25.4566 10.3284C25.9783 10.3361 26.4825 10.14 26.862 9.782Z" fill="#3D3D3D"/>
</svg>
